<svg xmlns="http://www.w3.org/2000/svg" width="64" height="64" viewBox="0 0 64 64">
  <rect width="64" height="64" fill="#3498db" rx="8" />
  <rect x="16" y="16" width="8" height="8" fill="#e74c3c" />
  <rect x="24" y="16" width="8" height="8" fill="#e74c3c" />
  <rect x="32" y="16" width="8" height="8" fill="#e74c3c" />
  <rect x="40" y="16" width="8" height="8" fill="#2ecc71" />
  <rect x="16" y="24" width="8" height="8" fill="#2ecc71" />
  <rect x="24" y="24" width="8" height="8" fill="#3498db" />
  <rect x="32" y="24" width="8" height="8" fill="#3498db" />
  <rect x="40" y="24" width="8" height="8" fill="#e74c3c" />
  <rect x="16" y="32" width="8" height="8" fill="#2ecc71" />
  <rect x="24" y="32" width="8" height="8" fill="#3498db" />
  <rect x="32" y="32" width="8" height="8" fill="#3498db" />
  <rect x="40" y="32" width="8" height="8" fill="#3498db" />
  <rect x="16" y="40" width="8" height="8" fill="#2ecc71" />
  <rect x="24" y="40" width="8" height="8" fill="#3498db" />
  <rect x="32" y="40" width="8" height="8" fill="#e74c3c" />
  <rect x="40" y="40" width="8" height="8" fill="#3498db" />
</svg> 